<?xml version="1.0" encoding="iso-8859-1"?>
<svg width="130" height="41" viewBox="0 0 130 41" fill="none" xmlns="http://www.w3.org/2000/svg">
<path d="M37.6635 22.128C37.6635 23.855 37.4349 25.5227 36.9778 27.1311C36.5376 28.7227 35.9111 30.2211 35.0984 31.6264C34.2857 33.0147 33.3037 34.2846 32.1524 35.4359C31.0011 36.5872 29.7312 37.5777 28.3429 38.4073C26.9545 39.22 25.4561 39.8465 23.8476 40.2867C22.2392 40.7438 20.5714 40.9724 18.8444 40.9724C17.1175 40.9724 15.4497 40.7438 13.8413 40.2867C12.2497 39.8465 10.7513 39.22 9.34603 38.4073C7.95767 37.5777 6.68783 36.5872 5.53651 35.4359C4.38518 34.2846 3.39471 33.0147 2.56508 31.6264C1.75238 30.2211 1.11746 28.7227 0.660317 27.1311C0.220106 25.5227 0 23.855 0 22.128C0 20.401 0.220106 18.7333 0.660317 17.1248C1.11746 15.5163 1.75238 14.0179 2.56508 12.6296C3.39471 11.2412 4.38518 9.97135 5.53651 8.82003C6.68783 7.66871 7.95767 6.6867 9.34603 5.874C10.7513 5.0613 12.2497 4.43485 13.8413 3.99463C15.4497 3.53749 17.1175 3.30892 18.8444 3.30892C20.5714 3.30892 22.2392 3.53749 23.8476 3.99463C25.4561 4.43485 26.9545 5.0613 28.3429 5.874C29.7312 6.6867 31.0011 7.66871 32.1524 8.82003C33.3037 9.97135 34.2857 11.2412 35.0984 12.6296C35.9111 14.0179 36.5376 15.5163 36.9778 17.1248C37.4349 18.7333 37.6635 20.401 37.6635 22.128ZM30.4254 22.128C30.4254 20.5364 30.1206 19.038 29.5111 17.6327C28.9016 16.2105 28.072 14.983 27.0222 13.9502C25.9894 12.9005 24.7619 12.0708 23.3397 11.4613C21.9344 10.8518 20.436 10.547 18.8444 10.547C17.236 10.547 15.7291 10.8518 14.3238 11.4613C12.9185 12.0708 11.691 12.9005 10.6413 13.9502C9.59153 14.983 8.7619 16.2105 8.15238 17.6327C7.54286 19.038 7.23809 20.5364 7.23809 22.128C7.23809 23.7195 7.54286 25.2179 8.15238 26.6232C8.7619 28.0116 9.59153 29.2306 10.6413 30.2803C11.691 31.3301 12.9185 32.1597 14.3238 32.7692C15.7291 33.3788 17.236 33.6835 18.8444 33.6835C20.436 33.6835 21.9344 33.3788 23.3397 32.7692C24.7619 32.1597 25.9894 31.3301 27.0222 30.2803C28.072 29.2306 28.9016 28.0116 29.5111 26.6232C30.1206 25.2179 30.4254 23.7195 30.4254 22.128Z" fill="#1184BB"/>
<path d="M48.6603 40.1851H41.727V12.9851H43.4032L45.6889 16.2105C46.8063 15.1946 48.0762 14.4158 49.4984 13.874C50.9206 13.3153 52.3936 13.0359 53.9175 13.0359H60.0381V19.9438H53.9175C53.1894 19.9438 52.5037 20.0793 51.8603 20.3502C51.2169 20.6211 50.6582 20.9936 50.1841 21.4676C49.7101 21.9417 49.3376 22.5005 49.0667 23.1438C48.7958 23.7872 48.6603 24.4729 48.6603 25.201V40.1851Z" fill="#1184BB"/>
<path d="M71.4413 5.59463C71.4413 6.23802 71.3143 6.83908 71.0603 7.39781C70.8233 7.95654 70.4931 8.44754 70.0698 8.87082C69.6466 9.27717 69.1471 9.60733 68.5714 9.8613C68.0127 10.0983 67.4116 10.2169 66.7682 10.2169C66.1249 10.2169 65.5153 10.0983 64.9397 9.8613C64.3809 9.60733 63.8899 9.27717 63.4667 8.87082C63.0603 8.44754 62.7302 7.95654 62.4762 7.39781C62.2391 6.83908 62.1206 6.23802 62.1206 5.59463C62.1206 4.96818 62.2391 4.37559 62.4762 3.81686C62.7302 3.2412 63.0603 2.75019 63.4667 2.34384C63.8899 1.92056 64.3809 1.5904 64.9397 1.35336C65.5153 1.0994 66.1249 0.972412 66.7682 0.972412C67.4116 0.972412 68.0127 1.0994 68.5714 1.35336C69.1471 1.5904 69.6466 1.92056 70.0698 2.34384C70.4931 2.75019 70.8233 3.2412 71.0603 3.81686C71.3143 4.37559 71.4413 4.96818 71.4413 5.59463ZM70.2476 40.1851H63.2635V12.9851H70.2476V40.1851Z" fill="#1184BB"/>
<path d="M101.841 26.3438C101.841 28.3756 101.477 30.2719 100.749 32.0327C100.021 33.7766 99.0307 35.292 97.7778 36.5788C96.5249 37.8486 95.0518 38.856 93.3587 39.601C91.6825 40.329 89.8794 40.693 87.9492 40.693C86.036 40.693 84.2328 40.329 82.5397 39.601C80.8635 38.856 79.3905 37.8486 78.1206 36.5788C76.8677 35.292 75.8772 33.7766 75.1492 32.0327C74.4212 30.2719 74.0571 28.3756 74.0571 26.3438C74.0571 24.2782 74.4212 22.365 75.1492 20.6042C75.8772 18.8433 76.8677 17.328 78.1206 16.0581C79.3905 14.7714 80.8635 13.7639 82.5397 13.0359C84.2328 12.3079 86.036 11.9438 87.9492 11.9438C89.8794 11.9438 91.6825 12.2909 93.3587 12.9851C95.0518 13.6624 96.5249 14.6359 97.7778 15.9057C99.0307 17.1587 100.021 18.674 100.749 20.4518C101.477 22.2126 101.841 24.1766 101.841 26.3438ZM94.8571 26.3438C94.8571 25.2264 94.6709 24.219 94.2984 23.3216C93.9428 22.4073 93.4518 21.6285 92.8254 20.9851C92.1989 20.3248 91.4624 19.8253 90.6159 19.4867C89.7862 19.1311 88.8973 18.9534 87.9492 18.9534C87.001 18.9534 86.1037 19.1311 85.2571 19.4867C84.4275 19.8253 83.6995 20.3248 83.073 20.9851C82.4635 21.6285 81.9809 22.4073 81.6254 23.3216C81.2698 24.219 81.0921 25.2264 81.0921 26.3438C81.0921 27.3936 81.2698 28.3671 81.6254 29.2645C81.9809 30.1618 82.4635 30.9407 83.073 31.601C83.6995 32.2613 84.4275 32.7862 85.2571 33.1756C86.1037 33.5481 87.001 33.7343 87.9492 33.7343C88.8973 33.7343 89.7862 33.5565 90.6159 33.201C91.4624 32.8454 92.1989 32.346 92.8254 31.7026C93.4518 31.0592 93.9428 30.2803 94.2984 29.3661C94.6709 28.4518 94.8571 27.4444 94.8571 26.3438Z" fill="#1184BB"/>
<path d="M112.61 40.1851H105.676V12.9851H107.352L109.638 15.6264C110.756 14.6105 112.017 13.8317 113.422 13.2899C114.844 12.7311 116.326 12.4518 117.867 12.4518C119.526 12.4518 121.092 12.7735 122.565 13.4169C124.038 14.0433 125.325 14.9153 126.425 16.0327C127.526 17.1333 128.389 18.4285 129.016 19.9184C129.659 21.3915 129.981 22.9661 129.981 24.6423V40.1851H123.048V24.6423C123.048 23.9311 122.912 23.2624 122.641 22.6359C122.37 21.9925 121.998 21.4338 121.524 20.9597C121.05 20.4856 120.499 20.1132 119.873 19.8423C119.247 19.5714 118.578 19.4359 117.867 19.4359C117.139 19.4359 116.453 19.5714 115.81 19.8423C115.166 20.1132 114.607 20.4856 114.133 20.9597C113.659 21.4338 113.287 21.9925 113.016 22.6359C112.745 23.2624 112.61 23.9311 112.61 24.6423V40.1851Z" fill="#1184BB"/>
</svg>
