<svg width="1440" height="94" viewBox="0 0 1440 94" fill="none" xmlns="http://www.w3.org/2000/svg">
<path fill-rule="evenodd" clip-rule="evenodd" d="M221.681 0C221.681 4.06901e-05 221.681 8.13802e-05 221.681 0.00012207H231C225.979 0.00012207 221.675 3.47425 219.687 7.37003C219.498 7.83355 219.299 8.29156 219.089 8.74375C219.058 8.82915 219.028 8.9146 219 9.00003L219.005 8.92354C213.965 19.607 203.096 27 190.5 27C178.216 27 167.574 19.9681 162.38 9.71005L162.38 9.71668L162.345 9.64106C162.22 9.39215 162.098 9.14134 161.979 8.8887C159.517 4.08677 155.259 0.526214 151 0H0V94H1440V0H221.681Z" fill="#89D1F4"/>
</svg>
